<svg width="20" height="20" viewBox="0 0 20 20" fill="none" xmlns="http://www.w3.org/2000/svg">
<path fill-rule="evenodd" clip-rule="evenodd" d="M8.3335 16.6667C8.3335 18.0474 7.21421 19.1667 5.8335 19.1667C4.45278 19.1667 3.3335 18.0474 3.3335 16.6667C3.3335 15.286 4.45278 14.1667 5.8335 14.1667C7.21421 14.1667 8.3335 15.286 8.3335 16.6667ZM6.66683 16.6667C6.66683 17.1269 6.29373 17.5 5.8335 17.5C5.37326 17.5 5.00016 17.1269 5.00016 16.6667C5.00016 16.2064 5.37326 15.8334 5.8335 15.8334C6.29373 15.8334 6.66683 16.2064 6.66683 16.6667Z" fill="#72767C"/>
<path fill-rule="evenodd" clip-rule="evenodd" d="M16.6668 16.6667C16.6668 18.0474 15.5475 19.1667 14.1668 19.1667C12.7861 19.1667 11.6668 18.0474 11.6668 16.6667C11.6668 15.286 12.7861 14.1667 14.1668 14.1667C15.5475 14.1667 16.6668 15.286 16.6668 16.6667ZM15.0002 16.6667C15.0002 17.1269 14.6271 17.5 14.1668 17.5C13.7066 17.5 13.3335 17.1269 13.3335 16.6667C13.3335 16.2064 13.7066 15.8334 14.1668 15.8334C14.6271 15.8334 15.0002 16.2064 15.0002 16.6667Z" fill="#72767C"/>
<path fill-rule="evenodd" clip-rule="evenodd" d="M1.75466 2.12734C1.96049 1.71569 2.46105 1.54884 2.8727 1.75466L3.70895 2.17279C4.48334 2.55999 5.00227 3.32029 5.08065 4.18252L5.12052 4.62108C5.14003 4.83569 5.31998 5.00002 5.53548 5.00002H16.5296C17.9842 5.00002 18.991 6.45288 18.4803 7.81486L17.0192 11.7112C16.6533 12.6869 15.7205 13.3334 14.6784 13.3334H6.52204C5.22904 13.3334 4.14937 12.3474 4.03231 11.0597L3.42083 4.33341C3.3947 4.046 3.22173 3.79257 2.9636 3.6635L2.12734 3.24538C1.71569 3.03955 1.54884 2.53899 1.75466 2.12734ZM5.76275 6.66669C5.51774 6.66669 5.32561 6.87707 5.34779 7.12108L5.69213 10.9088C5.73115 11.338 6.09104 11.6667 6.52204 11.6667H14.6784C15.0257 11.6667 15.3367 11.4512 15.4586 11.126L16.9197 7.22965C17.0219 6.95726 16.8205 6.66669 16.5296 6.66669H5.76275Z" fill="#72767C"/>
</svg>
