<svg width="20" height="20" viewBox="0 0 20 20" fill="none" xmlns="http://www.w3.org/2000/svg">
<path fill-rule="evenodd" clip-rule="evenodd" d="M5.83317 13.2511V15.8292L10.0517 13.3365L10.4926 13.3293C12.2459 13.3006 13.8237 13.124 15.0035 12.9445C15.7481 12.8312 16.2654 12.3116 16.3778 11.6591C16.5337 10.7541 16.6665 9.60742 16.6665 8.33332C16.6665 7.05922 16.5337 5.91259 16.3778 5.00754C16.2654 4.35506 15.7481 3.83542 15.0035 3.72213C13.7131 3.52579 11.9484 3.33332 9.99984 3.33332C8.05123 3.33332 6.28657 3.52579 4.99619 3.72213C4.25162 3.83542 3.73425 4.35506 3.62186 5.00755C3.46597 5.91259 3.33317 7.05922 3.33317 8.33332C3.33317 9.60742 3.46597 10.7541 3.62186 11.6591C3.71946 12.2257 4.11529 12.6799 4.6924 12.8718L5.83317 13.2511ZM1.97939 4.72463C2.22121 3.32072 3.33711 2.28872 4.74548 2.07443C6.09493 1.8691 7.94616 1.66666 9.99984 1.66666C12.0535 1.66666 13.9047 1.8691 15.2542 2.07443C16.6626 2.28872 17.7785 3.32072 18.0203 4.72463C18.1888 5.70309 18.3332 6.94603 18.3332 8.33332C18.3332 9.72061 18.1888 10.9636 18.0203 11.942C17.7785 13.3459 16.6626 14.3779 15.2542 14.5922C14.0197 14.7801 12.3652 14.9655 10.5199 14.9957L5.42378 18.0071C4.86826 18.3353 4.1665 17.9349 4.1665 17.2896V14.4533C3.03864 14.0782 2.18697 13.1472 1.97939 11.942C1.81085 10.9636 1.6665 9.72061 1.6665 8.33332C1.6665 6.94603 1.81085 5.70309 1.97939 4.72463Z" fill="#72767C"/>
<path fill-rule="evenodd" clip-rule="evenodd" d="M5.83333 5.83334C5.3731 5.83334 5 6.20644 5 6.66668C5 7.12691 5.3731 7.50001 5.83333 7.50001H14.1667C14.6269 7.50001 15 7.12691 15 6.66668C15 6.20644 14.6269 5.83334 14.1667 5.83334H5.83333ZM5.83333 9.16668C5.3731 9.16668 5 9.53977 5 10C5 10.4602 5.3731 10.8333 5.83333 10.8333H9.16667C9.6269 10.8333 10 10.4602 10 10C10 9.53977 9.6269 9.16668 9.16667 9.16668H5.83333Z" fill="#72767C"/>
</svg>
