<svg width="20" height="20" viewBox="0 0 20 20" fill="none" xmlns="http://www.w3.org/2000/svg">
<path fill-rule="evenodd" clip-rule="evenodd" d="M14.5835 12.5C14.2067 12.5 13.6743 12.5521 13.12 12.628C12.8611 12.6634 12.6636 12.8609 12.6282 13.1198C12.5523 13.6741 12.5002 14.2065 12.5002 14.5833C12.5002 14.9601 12.5523 15.4925 12.6282 16.0468C12.6636 16.3057 12.8611 16.5032 13.12 16.5387C13.6743 16.6146 14.2067 16.6666 14.5835 16.6666C14.9603 16.6666 15.4927 16.6146 16.047 16.5387C16.3059 16.5032 16.5034 16.3057 16.5388 16.0468C16.6147 15.4925 16.6668 14.9601 16.6668 14.5833C16.6668 14.2065 16.6147 13.6741 16.5388 13.1198C16.5034 12.8609 16.3059 12.6634 16.047 12.628C15.4927 12.5521 14.9603 12.5 14.5835 12.5ZM12.8939 10.9767C11.8939 11.1137 11.1138 11.8938 10.9769 12.8937C10.8984 13.4672 10.8335 14.0901 10.8335 14.5833C10.8335 15.0765 10.8984 15.6994 10.9769 16.273C11.1138 17.2729 11.8939 18.053 12.8939 18.1899C13.4674 18.2684 14.0903 18.3333 14.5835 18.3333C15.0767 18.3333 15.6996 18.2684 16.2731 18.1899C17.2731 18.053 18.0531 17.2729 18.1901 16.273C18.2686 15.6994 18.3335 15.0765 18.3335 14.5833C18.3335 14.0901 18.2686 13.4672 18.1901 12.8937C18.0531 11.8938 17.2731 11.1137 16.2731 10.9767C15.6996 10.8982 15.0767 10.8333 14.5835 10.8333C14.0903 10.8333 13.4674 10.8982 12.8939 10.9767Z" fill="#72767C"/>
<path fill-rule="evenodd" clip-rule="evenodd" d="M5.4165 12.5C5.03969 12.5 4.50728 12.5521 3.95301 12.628C3.69407 12.6634 3.49663 12.8609 3.46117 13.1198C3.38526 13.6741 3.33317 14.2065 3.33317 14.5833C3.33317 14.9601 3.38526 15.4925 3.46117 16.0468C3.49663 16.3057 3.69407 16.5032 3.95301 16.5387C4.50728 16.6146 5.03969 16.6666 5.4165 16.6666C5.79332 16.6666 6.32573 16.6146 6.87999 16.5387C7.13893 16.5032 7.33638 16.3057 7.37184 16.0468C7.44775 15.4925 7.49984 14.9601 7.49984 14.5833C7.49984 14.2065 7.44775 13.6741 7.37184 13.1198C7.33638 12.8609 7.13893 12.6634 6.87999 12.628C6.32573 12.5521 5.79332 12.5 5.4165 12.5ZM3.72687 10.9767C2.72695 11.1137 1.94686 11.8938 1.80991 12.8937C1.73137 13.4672 1.6665 14.0901 1.6665 14.5833C1.6665 15.0765 1.73137 15.6994 1.80991 16.273C1.94686 17.2729 2.72695 18.053 3.72687 18.1899C4.30038 18.2684 4.92331 18.3333 5.4165 18.3333C5.9097 18.3333 6.53263 18.2684 7.10614 18.1899C8.10606 18.053 8.88615 17.2729 9.02309 16.273C9.10164 15.6994 9.1665 15.0765 9.1665 14.5833C9.1665 14.0901 9.10164 13.4672 9.02309 12.8937C8.88615 11.8938 8.10606 11.1137 7.10614 10.9767C6.53263 10.8982 5.9097 10.8333 5.4165 10.8333C4.92331 10.8333 4.30038 10.8982 3.72687 10.9767Z" fill="#72767C"/>
<path fill-rule="evenodd" clip-rule="evenodd" d="M14.5835 3.33335C14.2067 3.33335 13.6743 3.38544 13.12 3.46135C12.8611 3.49681 12.6636 3.69426 12.6282 3.9532C12.5523 4.50746 12.5002 5.03987 12.5002 5.41669C12.5002 5.7935 12.5523 6.32592 12.6282 6.88018C12.6636 7.13912 12.8611 7.33656 13.12 7.37202C13.6743 7.44793 14.2067 7.50002 14.5835 7.50002C14.9603 7.50002 15.4927 7.44793 16.047 7.37202C16.3059 7.33656 16.5034 7.13912 16.5388 6.88018C16.6147 6.32592 16.6668 5.7935 16.6668 5.41669C16.6668 5.03987 16.6147 4.50746 16.5388 3.9532C16.5034 3.69426 16.3059 3.49681 16.047 3.46135C15.4927 3.38544 14.9603 3.33335 14.5835 3.33335ZM12.8939 1.8101C11.8939 1.94704 11.1138 2.72713 10.9769 3.72705C10.8984 4.30056 10.8335 4.92349 10.8335 5.41669C10.8335 5.90989 10.8984 6.53282 10.9769 7.10632C11.1138 8.10624 11.8939 8.88633 12.8939 9.02328C13.4674 9.10182 14.0903 9.16669 14.5835 9.16669C15.0767 9.16669 15.6996 9.10182 16.2731 9.02328C17.2731 8.88633 18.0531 8.10624 18.1901 7.10632C18.2686 6.53282 18.3335 5.90989 18.3335 5.41669C18.3335 4.92349 18.2686 4.30056 18.1901 3.72705C18.0531 2.72713 17.2731 1.94704 16.2731 1.8101C15.6996 1.73155 15.0767 1.66669 14.5835 1.66669C14.0903 1.66669 13.4674 1.73155 12.8939 1.8101Z" fill="#72767C"/>
<path fill-rule="evenodd" clip-rule="evenodd" d="M5.4165 3.33335C5.03969 3.33335 4.50728 3.38544 3.95301 3.46135C3.69407 3.49681 3.49663 3.69426 3.46117 3.9532C3.38526 4.50746 3.33317 5.03987 3.33317 5.41669C3.33317 5.7935 3.38526 6.32592 3.46117 6.88018C3.49663 7.13912 3.69407 7.33656 3.95301 7.37202C4.50728 7.44793 5.03969 7.50002 5.4165 7.50002C5.79332 7.50002 6.32573 7.44793 6.87999 7.37202C7.13893 7.33656 7.33638 7.13912 7.37184 6.88018C7.44775 6.32592 7.49984 5.7935 7.49984 5.41669C7.49984 5.03987 7.44775 4.50746 7.37184 3.9532C7.33638 3.69426 7.13893 3.49681 6.87999 3.46135C6.32573 3.38544 5.79332 3.33335 5.4165 3.33335ZM3.72687 1.8101C2.72695 1.94704 1.94686 2.72713 1.80991 3.72705C1.73137 4.30056 1.6665 4.92349 1.6665 5.41669C1.6665 5.90989 1.73137 6.53282 1.80991 7.10632C1.94686 8.10624 2.72695 8.88633 3.72687 9.02328C4.30038 9.10182 4.92331 9.16669 5.4165 9.16669C5.9097 9.16669 6.53263 9.10182 7.10614 9.02328C8.10606 8.88633 8.88615 8.10624 9.02309 7.10632C9.10164 6.53282 9.1665 5.90989 9.1665 5.41669C9.1665 4.92349 9.10164 4.30056 9.02309 3.72705C8.88615 2.72713 8.10606 1.94704 7.10614 1.8101C6.53263 1.73155 5.9097 1.66669 5.4165 1.66669C4.92331 1.66669 4.30038 1.73155 3.72687 1.8101Z" fill="#72767C"/>
</svg>
