<svg width="20" height="24" viewBox="0 0 20 24" fill="none" xmlns="http://www.w3.org/2000/svg">
<path d="M17.2004 13.449V9.62358C17.1987 7.91915 16.5953 6.27033 15.4971 4.9691C14.399 3.66788 12.8769 2.79823 11.2004 2.51416V1.20295C11.2004 0.883906 11.074 0.577931 10.8489 0.352335C10.6239 0.126739 10.3186 0 10.0004 0C9.68213 0 9.3769 0.126739 9.15186 0.352335C8.92682 0.577931 8.80039 0.883906 8.80039 1.20295V2.51416C7.12392 2.79823 5.60182 3.66788 4.50365 4.9691C3.40549 6.27033 2.80211 7.91915 2.80039 9.62358V13.449C2.10013 13.6971 1.49359 14.1564 1.06392 14.7637C0.634245 15.371 0.402478 16.0967 0.400391 16.8413V19.2472C0.400391 19.5662 0.526819 19.8722 0.751863 20.0978C0.976906 20.3234 1.28213 20.4501 1.60039 20.4501H5.36839C5.64473 21.4694 6.24799 22.3693 7.08511 23.0109C7.92222 23.6524 8.94666 24 10.0004 24C11.0541 24 12.0786 23.6524 12.9157 23.0109C13.7528 22.3693 14.356 21.4694 14.6324 20.4501H18.4004C18.7186 20.4501 19.0239 20.3234 19.2489 20.0978C19.474 19.8722 19.6004 19.5662 19.6004 19.2472V16.8413C19.5983 16.0967 19.3665 15.371 18.9369 14.7637C18.5072 14.1564 17.9006 13.6971 17.2004 13.449ZM5.20039 9.62358C5.20039 8.34741 5.7061 7.12351 6.60628 6.22113C7.50645 5.31874 8.72735 4.81179 10.0004 4.81179C11.2734 4.81179 12.4943 5.31874 13.3945 6.22113C14.2947 7.12351 14.8004 8.34741 14.8004 9.62358V13.2324H5.20039V9.62358ZM10.0004 21.6531C9.58156 21.6505 9.17068 21.5381 8.80859 21.3271C8.4465 21.1161 8.1458 20.8137 7.93639 20.4501H12.0644C11.855 20.8137 11.5543 21.1161 11.1922 21.3271C10.8301 21.5381 10.4192 21.6505 10.0004 21.6531ZM17.2004 18.0442H2.80039V16.8413C2.80039 16.5222 2.92682 16.2162 3.15186 15.9906C3.37691 15.7651 3.68213 15.6383 4.00039 15.6383H16.0004C16.3186 15.6383 16.6239 15.7651 16.8489 15.9906C17.074 16.2162 17.2004 16.5222 17.2004 16.8413V18.0442Z" fill="#7C7C8D"/>
<circle cx="14.9004" cy="6.5" r="3.75" fill="#FF5E6F" stroke="white" stroke-width="1.5"/>
</svg>
