<svg width="20" height="20" viewBox="0 0 20 20" fill="none" xmlns="http://www.w3.org/2000/svg">
<path d="M18.0891 3.08928C18.4145 2.76384 18.4145 2.2362 18.0891 1.91076C17.7637 1.58533 17.236 1.58533 16.9106 1.91076L6.49392 12.3274C6.16848 12.6529 6.16848 13.1805 6.49392 13.5059C6.81935 13.8314 7.34699 13.8314 7.67243 13.5059L18.0891 3.08928Z" fill="#72767C"/>
<path d="M4.33909 16.8393C4.66453 16.5138 4.66453 15.9862 4.33909 15.6608C4.01366 15.3353 3.48602 15.3353 3.16058 15.6608L1.91058 16.9108C1.58514 17.2362 1.58514 17.7638 1.91058 18.0893C2.23602 18.4147 2.76366 18.4147 3.08909 18.0893L4.33909 16.8393Z" fill="#72767C"/>
<path fill-rule="evenodd" clip-rule="evenodd" d="M5.20573 16.1818C5.43677 16.4128 5.79478 16.5013 6.04865 16.2957C6.42581 15.9901 6.6669 15.5232 6.6669 15C6.6669 14.0795 5.92071 13.3333 5.00023 13.3333C4.47702 13.3333 4.01012 13.5744 3.70456 13.9516C3.49888 14.2054 3.58739 14.5635 3.81843 14.7945L5.20573 16.1818ZM6.01949 18.1746C5.38815 18.3772 4.73684 18.0699 4.268 17.6011L2.39913 15.7322C1.93029 15.2634 1.62307 14.6121 1.82562 13.9807C2.25627 12.6383 3.51478 11.6667 5.00023 11.6667C6.84118 11.6667 8.33357 13.159 8.33357 15C8.33357 16.4854 7.36191 17.744 6.01949 18.1746Z" fill="#72767C"/>
<path d="M1.91091 3.08928C1.58547 2.76384 1.58547 2.2362 1.91091 1.91076C2.23634 1.58533 2.76398 1.58533 3.08942 1.91076L13.5061 12.3274C13.8315 12.6529 13.8315 13.1805 13.5061 13.5059C13.1806 13.8314 12.653 13.8314 12.3276 13.5059L1.91091 3.08928Z" fill="#72767C"/>
<path d="M15.6609 16.8393C15.3355 16.5138 15.3355 15.9862 15.6609 15.6608C15.9863 15.3353 16.514 15.3353 16.8394 15.6608L18.0894 16.9108C18.4149 17.2362 18.4149 17.7638 18.0894 18.0893C17.764 18.4147 17.2363 18.4147 16.9109 18.0893L15.6609 16.8393Z" fill="#72767C"/>
<path fill-rule="evenodd" clip-rule="evenodd" d="M14.7943 16.1818C14.5632 16.4128 14.2052 16.5013 13.9513 16.2957C13.5742 15.9901 13.3331 15.5232 13.3331 15C13.3331 14.0795 14.0793 13.3333 14.9998 13.3333C15.523 13.3333 15.9899 13.5744 16.2954 13.9516C16.5011 14.2054 16.4126 14.5635 16.1816 14.7945L14.7943 16.1818ZM13.9805 18.1746C14.6119 18.3772 15.2632 18.0699 15.732 17.6011L17.6009 15.7322C18.0697 15.2634 18.3769 14.6121 18.1744 13.9807C17.7437 12.6383 16.4852 11.6667 14.9998 11.6667C13.1588 11.6667 11.6664 13.159 11.6664 15C11.6664 16.4854 12.6381 17.744 13.9805 18.1746Z" fill="#72767C"/>
</svg>
