<svg width="20" height="20" viewBox="0 0 20 20" fill="none" xmlns="http://www.w3.org/2000/svg">
<path fill-rule="evenodd" clip-rule="evenodd" d="M9.99984 18.3334C14.6022 18.3334 18.3332 14.6024 18.3332 10C18.3332 5.39765 14.6022 1.66669 9.99984 1.66669C5.39746 1.66669 1.6665 5.39765 1.6665 10C1.6665 14.6024 5.39746 18.3334 9.99984 18.3334ZM15.2663 14.0881C16.1439 12.9592 16.6665 11.5406 16.6665 10C16.6665 6.60034 14.1218 3.79501 10.8332 3.38493V6.7717C12.2709 7.14174 13.3332 8.44682 13.3332 10C13.3332 10.6182 13.1649 11.1971 12.8716 11.6934L15.2663 14.0881ZM14.0878 15.2666L11.6931 12.8719C11.1968 13.1651 10.618 13.3334 9.99984 13.3334C9.3817 13.3334 8.80285 13.1651 8.30661 12.8719L5.91187 15.2666C7.04076 16.1441 8.45928 16.6667 9.99984 16.6667C11.5404 16.6667 12.9589 16.1441 14.0878 15.2666ZM6.6665 10C6.6665 10.6182 6.8348 11.1971 7.12807 11.6934L4.73334 14.0881C3.85576 12.9592 3.33317 11.5406 3.33317 10C3.33317 6.60034 5.87791 3.79501 9.1665 3.38493V6.7717C7.72881 7.14174 6.6665 8.44682 6.6665 10ZM9.99984 11.6667C10.9203 11.6667 11.6665 10.9205 11.6665 10C11.6665 9.07955 10.9203 8.33335 9.99984 8.33335C9.07936 8.33335 8.33317 9.07955 8.33317 10C8.33317 10.9205 9.07936 11.6667 9.99984 11.6667Z" fill="#72767C"/>
</svg>
